<svg width="15" height="19" viewBox="0 0 15 19" fill="none" xmlns="http://www.w3.org/2000/svg">
<rect width="15" height="19" fill="#F5F5F5"/>
<g id="UI Kit">
<rect x="-109" y="-395" width="615" height="528" rx="30" fill="#181818"/>
<g id="Group 48096408">
<rect id="Rectangle 3769" width="5" height="19" fill="#D9D9D9"/>
<rect id="Rectangle 3770" x="10" width="5" height="19" fill="#D9D9D9"/>
</g>
</g>
<path id="Arrow 31" d="M799.846 -9178.57C800.667 -9178.68 801.422 -9178.1 801.534 -9177.28L803.345 -9163.9C803.456 -9163.08 802.881 -9162.33 802.06 -9162.21C801.239 -9162.1 800.483 -9162.68 800.372 -9163.5L798.762 -9175.39L786.871 -9173.78C786.05 -9173.67 785.294 -9174.25 785.183 -9175.07C785.072 -9175.89 785.647 -9176.64 786.468 -9176.75L799.846 -9178.57ZM-864.554 2787.14C-1649.5 -2436.24 -1385.54 -6309.48 798.854 -9177.99L801.241 -9176.17C-1382.37 -6308.68 -1646.51 -2436.52 -861.588 2786.7L-864.554 2787.14Z" fill="#9A48F1"/>
</svg>
